<svg xmlns="http://www.w3.org/2000/svg" viewBox="0 0 1200 675" fill="none">
  <defs>
    <linearGradient id="skyOld" x1="0" y1="0" x2="0" y2="675">
      <stop offset="0" stop-color="#f1f5f9" />
      <stop offset="1" stop-color="#cbd5e1" />
    </linearGradient>
  </defs>
  <rect width="1200" height="675" fill="url(#skyOld)" />
  <rect x="0" y="430" width="1200" height="245" fill="#94a3b8" />
  <rect x="130" y="280" width="940" height="220" fill="#475569" opacity="0.88" />
  <rect x="220" y="250" width="760" height="200" fill="#334155" opacity="0.92" />
  <rect x="315" y="220" width="570" height="170" fill="#1e293b" opacity="0.95" />
  <rect x="560" y="70" width="90" height="230" fill="#0f172a" />
  <path d="M560 70L605 10L650 70H560Z" fill="#020617" />
  <rect x="460" y="120" width="80" height="170" fill="#1e293b" />
  <path d="M460 120L500 70L540 120H460Z" fill="#0f172a" />
  <rect x="670" y="120" width="80" height="170" fill="#1e293b" />
  <path d="M670 120L710 70L750 120H670Z" fill="#0f172a" />
  <rect x="0" y="500" width="1200" height="175" fill="#64748b" />
  <rect x="0" y="510" width="1200" height="16" fill="#e2e8f0" opacity="0.28" />
  <text
    x="40"
    y="62"
    fill="#334155"
    font-size="38"
    font-family="Georgia, serif"
    letter-spacing="1"
  >
    ANGKOR WAT - 1920 ARCHIVE VIEW
  </text>
</svg>
